<svg version="1.1" id="Layer_1" xmlns="http://www.w3.org/2000/svg" xmlns:xlink="http://www.w3.org/1999/xlink" x="0px" y="0px"
	 width="100%" viewBox="0 0 576 816" enable-background="new 0 0 576 816" xml:space="preserve">
<path fill="#ffffff" opacity="1.000000" stroke="none"
	d="
M481.349762,71.765221 
	C487.781708,74.654327 493.667084,75.842567 498.947937,67.145737 
	C499.684570,75.212280 503.846497,74.653534 508.129150,75.134819 
	C512.749146,75.654007 515.572876,79.563705 518.025208,83.356445 
	C521.045166,88.026939 521.983948,93.440598 523.584351,98.630516 
	C525.295227,104.178604 526.929688,109.789398 529.210693,115.109901 
	C530.979248,119.234947 530.693665,122.886658 529.691223,127.131104 
	C527.102417,138.092804 523.756470,149.014786 525.303345,160.564590 
	C525.875366,164.835434 525.868103,169.208801 529.021912,172.681915 
	C530.243652,174.027328 530.403137,175.960083 530.052185,177.438858 
	C527.669006,187.481110 527.309143,198.083481 521.989807,207.330856 
	C520.922241,209.186798 520.597595,211.316986 521.572754,213.092590 
	C525.264893,219.815201 524.866821,227.195938 525.266174,234.425980 
	C525.979919,247.348816 525.980835,260.304199 528.388550,273.114868 
	C529.374756,278.362122 532.919861,282.296234 534.346985,287.289124 
	C537.103699,296.933960 534.791809,306.403473 533.945984,315.930206 
	C533.549683,320.393677 532.917664,324.862976 531.295044,329.066193 
	C528.019409,337.551056 531.461182,345.547058 533.632996,353.318024 
	C535.802429,361.080688 535.168396,368.193909 533.619141,375.845306 
	C530.939941,389.076935 531.891418,402.655334 531.001465,416.056152 
	C530.212402,427.938385 534.473572,439.057312 534.431763,450.705017 
	C534.384705,463.805756 534.308105,476.906494 534.299805,490.007233 
	C534.298340,492.292297 533.057617,494.131805 532.373108,496.154724 
	C529.680298,504.112793 530.926758,511.848206 534.900940,518.732117 
	C538.178589,524.409485 538.872192,530.538025 539.069336,536.441956 
	C539.413574,546.749512 540.491333,556.879272 542.504639,566.943481 
	C543.268433,570.761414 542.118103,573.104126 538.575623,575.032837 
	C535.524963,576.693848 531.731812,578.086731 530.929321,582.682129 
	C534.286560,584.760925 535.895203,588.515442 538.386963,591.544006 
	C542.128296,596.091309 541.902771,601.845581 541.039062,607.334167 
	C540.096375,613.324036 540.726196,619.230591 540.851685,625.207642 
	C541.060059,635.135620 539.812805,645.047119 538.018921,654.840820 
	C536.595093,662.614441 537.630676,670.278015 539.513611,677.742188 
	C540.711792,682.491760 541.689148,687.517029 544.931152,691.556335 
	C545.923279,692.792419 545.439758,694.022278 544.823242,695.284546 
	C539.725403,705.722229 539.354065,717.113647 538.459351,728.342285 
	C538.035828,733.656677 541.010559,738.209839 543.297729,742.831604 
	C546.677551,749.661316 546.418945,751.769348 540.037476,756.063843 
	C533.933044,760.171753 527.887817,764.144775 523.611145,770.338074 
	C522.148193,772.456726 519.569092,772.460999 517.201294,772.359192 
	C510.650208,772.077820 504.426331,773.570557 498.074646,775.051575 
	C487.712097,777.467712 476.968719,778.402588 466.401001,778.173279 
	C448.552795,777.786072 430.877380,779.961548 413.105682,780.490723 
	C410.018890,780.582703 406.817383,781.479004 403.925964,782.642700 
	C393.185852,786.965271 383.276978,785.847717 373.615814,779.420166 
	C370.041840,777.042419 365.558258,776.383667 361.166443,776.373718 
	C351.835083,776.352539 342.503571,776.365906 333.172211,776.386353 
	C332.010193,776.388855 330.739624,776.236877 329.703369,776.635254 
	C318.729980,780.853333 307.469879,778.682556 296.732361,776.735596 
	C284.340973,774.488708 271.992645,773.848694 259.543976,773.566956 
	C253.358078,773.426941 247.320877,772.736816 241.275406,771.398987 
	C232.023193,769.351562 222.874146,771.206848 213.620850,772.215332 
	C207.863647,772.842773 201.826523,770.931702 195.918304,770.135681 
	C188.181488,769.093262 180.435349,768.109619 172.717712,766.939148 
	C168.278946,766.265991 164.569794,768.371033 160.764893,769.856445 
	C154.165146,772.433228 147.734619,774.230774 140.459442,772.420715 
	C129.464569,769.685303 118.799919,772.236267 108.082237,775.089783 
	C100.089523,777.217834 91.730263,778.170410 83.422569,776.620117 
	C76.236740,775.279236 71.987602,770.064697 71.647667,762.692627 
	C71.418930,757.732056 71.194885,752.789062 71.588501,747.801514 
	C72.297783,738.814087 70.472656,729.923218 70.098831,720.992310 
	C69.542686,707.705933 69.194702,694.494507 65.938515,681.476318 
	C64.869270,677.201538 66.401047,672.607605 66.616959,668.151001 
	C67.409409,651.794495 65.052299,635.729065 63.468628,619.542358 
	C62.099712,605.550659 61.953987,591.375610 63.033543,577.314575 
	C63.796917,567.371765 64.808075,557.475159 64.705467,547.474548 
	C64.471458,524.666626 64.665535,501.861389 63.813324,479.051514 
	C63.436871,468.975677 65.504059,458.817139 65.255760,448.725830 
	C64.919846,435.073151 64.642105,421.426208 64.717491,407.772614 
	C64.761566,399.791138 64.706970,391.832458 65.448868,383.832153 
	C66.432899,373.220917 63.432148,362.705719 63.335499,352.102478 
	C63.221573,339.603638 59.572845,327.706848 56.064316,316.138855 
	C53.105938,306.384735 56.981133,298.317932 57.921116,289.584198 
	C59.313625,276.645844 59.341976,263.766541 58.265884,250.876144 
	C58.023666,247.974640 58.605087,245.281342 58.743862,242.510925 
	C59.692783,223.566910 59.136196,204.584213 58.282707,185.717697 
	C57.634800,171.395615 55.843300,157.029968 54.828625,142.657578 
	C53.906242,129.592529 53.393703,116.515823 55.881271,103.600227 
	C56.579441,99.975304 58.681232,96.464439 60.755791,93.306297 
	C62.700829,90.345314 62.565804,87.900566 60.952839,85.019081 
	C59.095272,81.700623 57.209393,78.424591 57.590271,74.265968 
	C57.902081,70.861435 59.301025,68.712669 62.462402,67.489014 
	C66.671272,65.859909 71.096092,63.897583 75.439911,64.308434 
	C86.170677,65.323364 95.761078,58.962189 106.141052,59.790020 
	C126.108528,61.382477 146.121399,59.553738 166.001221,60.976620 
	C176.604370,61.735531 187.118256,61.057957 197.667358,61.465015 
	C206.738098,61.815033 216.271545,62.180897 224.840820,59.338264 
	C234.117188,56.261070 243.240494,55.878834 252.165131,58.010944 
	C269.261444,62.095287 286.397736,58.192902 303.446411,59.615582 
	C307.907990,59.987888 312.412048,60.096615 316.821564,60.798138 
	C327.628174,62.517395 337.484253,59.544708 347.246216,55.426506 
	C351.780182,53.513790 356.599701,52.386108 361.393433,51.161777 
	C368.894836,49.245911 374.234100,53.388988 379.676086,56.983406 
	C382.575897,58.898735 385.620789,60.732048 388.792664,60.468075 
	C399.776062,59.553986 409.730103,61.724571 417.915680,69.288155 
	C422.430725,73.460106 427.033142,73.043640 431.456390,70.280869 
	C440.920715,64.369408 451.126892,67.132950 461.087036,67.119736 
	C465.526581,67.113838 469.860687,68.697594 474.374207,68.436455 
	C477.110443,68.278145 478.896057,70.330208 481.349762,71.765221 
M491.878662,463.793182 
	C491.773621,461.731842 490.743744,460.090240 489.793457,458.298981 
	C486.068970,451.278229 481.049255,444.961700 478.206238,437.487823 
	C476.873260,433.983612 474.691711,431.165436 472.592499,428.155487 
	C465.764282,418.364929 453.964447,412.865662 449.418488,401.102203 
	C448.939026,399.861481 447.414612,398.734985 446.108765,398.157745 
	C442.253143,396.453278 439.202393,393.530853 435.626495,391.496918 
	C414.404053,379.425537 397.915741,362.237732 382.972809,343.344971 
	C381.524933,341.514404 379.858429,340.380402 377.544800,340.259918 
	C371.079132,339.923096 364.613953,339.569916 358.145569,339.293091 
	C350.445251,338.963562 343.467773,337.258423 338.492798,330.590332 
	C335.852509,327.051453 322.925964,325.599030 319.351685,328.093781 
	C318.031036,329.015594 317.384613,330.325409 317.168549,331.868744 
	C316.362335,337.627533 314.927612,343.303192 315.254547,349.206818 
	C315.429565,352.366852 315.132172,355.525421 313.862305,358.523376 
	C309.586639,368.617584 308.008240,379.056427 307.805237,390.104370 
	C307.556244,403.654083 306.920990,417.311493 304.029236,430.688110 
	C303.795654,431.768524 303.813110,433.095947 304.229736,434.093079 
	C307.083557,440.923065 307.730133,448.299530 308.998291,455.423737 
	C311.132416,467.412567 310.234863,479.638184 309.382416,491.763275 
	C308.966034,497.686249 307.608185,503.476135 310.253082,509.405579 
	C317.759796,526.234314 316.068024,544.223022 316.282745,561.947144 
	C316.415314,572.886414 315.937897,583.811646 319.058899,594.574402 
	C320.755646,600.425598 322.953705,606.199341 323.229462,612.495667 
	C323.444458,617.405334 321.096008,621.518188 320.206909,626.061096 
	C317.905243,637.821045 317.981537,649.881226 315.298035,661.596924 
	C314.026215,667.149719 315.170441,672.321045 319.333771,676.859375 
	C324.165680,682.126526 327.694214,687.949585 325.013855,695.828491 
	C322.927185,701.962219 321.649658,708.388550 322.025055,714.957336 
	C322.255554,718.990112 322.787903,723.225708 326.734192,725.392395 
	C330.649078,727.541748 334.726562,729.643921 339.196655,730.395752 
	C345.901093,731.523315 352.789642,733.080627 359.130096,729.222778 
	C368.365021,723.603638 377.965637,718.529785 387.938324,714.625183 
	C394.944397,711.882080 399.708862,708.415649 401.880249,701.196777 
	C402.771210,698.234802 404.167877,695.265869 407.951141,694.571289 
	C417.257660,692.862549 424.858490,687.792480 432.051727,682.003723 
	C434.450165,680.073608 436.965393,678.762024 440.178162,678.685608 
	C447.402710,678.513733 449.076843,677.146667 450.565430,669.912476 
	C451.398651,665.863525 452.451996,661.545044 455.960846,659.560608 
	C463.406769,655.349731 466.589874,648.614929 469.484253,641.165161 
	C473.809143,630.033447 479.250763,619.292786 480.216797,607.124390 
	C480.687378,601.197632 483.272644,597.495850 489.405853,595.774109 
	C492.748627,594.835754 495.652985,592.039429 498.518890,589.781250 
	C501.428680,587.488464 501.470825,584.663208 498.796326,582.080017 
	C497.616211,580.940247 496.119965,580.114258 494.722351,579.215637 
	C490.039276,576.204529 489.282166,573.195007 492.643768,568.980225 
	C499.145172,560.828796 504.275696,552.188416 505.759491,541.544556 
	C506.287750,537.755066 506.399323,533.946167 506.978271,530.173462 
	C508.161438,522.463196 507.337921,515.156799 503.609344,508.021027 
	C500.478394,502.028961 498.446716,495.489594 496.172760,489.077850 
	C493.339050,481.087677 493.083527,472.820770 491.878662,463.793182 
M187.973740,222.538223 
	C178.099442,213.225098 170.017746,202.292633 160.252518,192.766052 
	C149.017181,181.805283 139.527725,168.933578 129.428406,156.786499 
	C119.213608,144.500534 109.450974,131.884369 97.874779,120.800797 
	C93.893959,116.989372 89.806648,113.350037 85.323441,110.138237 
	C83.317123,108.700890 81.216545,107.560471 78.874451,108.731209 
	C76.663322,109.836494 77.401024,112.220909 77.314896,114.146965 
	C76.878960,123.895897 79.765327,133.197952 81.066528,142.714218 
	C84.264236,166.100449 86.327934,189.602646 85.348747,213.274841 
	C85.169098,217.617767 85.008430,221.914383 83.896233,226.136566 
	C80.334084,239.659439 79.408401,253.297028 83.440788,266.823639 
	C88.016190,282.171722 87.177994,299.084320 98.137825,312.655151 
	C104.709366,320.792236 105.570663,331.712402 108.104156,341.615784 
	C109.575676,347.367889 109.256042,353.592041 115.988884,356.408752 
	C116.667999,356.692902 117.191750,357.568604 117.585709,358.281372 
	C124.398262,370.606506 131.551926,382.688568 134.864487,396.699219 
	C137.368088,407.288300 139.087555,409.183350 146.426651,416.822571 
	C155.150055,425.902649 161.281357,436.863281 168.447144,447.065216 
	C175.102753,456.540833 176.523819,466.714813 172.188400,477.804047 
	C170.224762,482.826691 169.902817,488.348572 173.876663,493.624664 
	C175.575577,491.234497 176.287048,488.801880 178.491241,487.734070 
	C187.834641,483.207703 193.045181,475.544952 195.697266,465.736542 
	C198.178680,456.559357 201.262268,447.689117 207.135300,439.888031 
	C210.082047,435.973816 211.972717,431.283356 213.068939,426.263000 
	C215.254196,416.255310 219.187988,406.962708 226.080475,399.137177 
	C227.061264,398.023621 227.857361,396.706116 228.545990,395.382629 
	C241.721405,370.060059 256.755127,345.525024 261.314056,316.583527 
	C261.871277,313.046112 261.513550,310.174133 258.926849,307.985596 
	C251.236694,301.479248 245.519669,293.221680 238.939026,285.744781 
	C229.180099,274.656738 218.608109,264.138184 212.700027,250.140442 
	C211.292130,246.804764 208.675720,244.077911 206.071289,241.442871 
	C200.105728,235.407196 193.643417,229.840576 187.973740,222.538223 
M479.863525,399.673126 
	C485.091125,405.917023 489.312408,412.987427 495.235870,418.651550 
	C499.947998,423.157318 503.514771,422.224487 504.617035,415.903015 
	C506.722260,403.829620 508.254517,391.728790 498.320068,381.783997 
	C496.644867,380.107086 495.190094,377.917999 495.886444,375.500885 
	C498.254822,367.279846 497.319702,358.610168 499.614532,350.374176 
	C501.473755,343.701630 501.154602,336.883270 500.196991,330.051056 
	C499.179901,322.794006 498.042725,315.573547 495.789246,308.584564 
	C494.425476,304.354828 494.952667,300.558075 497.308838,296.725677 
	C499.569702,293.048309 501.715179,289.030853 501.604279,284.633484 
	C501.449921,278.513397 503.356384,273.197510 506.416412,268.127625 
	C507.302246,266.660034 508.438446,264.859131 507.446198,263.483459 
	C504.718506,259.701630 505.694702,255.597778 505.530701,251.487549 
	C504.974182,237.540833 504.186615,223.602249 503.359070,209.668182 
	C503.149261,206.136002 504.105286,203.508270 506.475494,200.677582 
	C509.009430,197.651398 513.049683,194.945923 512.584167,190.285477 
	C512.123352,185.671814 511.333405,181.008270 509.272644,176.763229 
	C507.330902,172.763275 506.561035,168.633667 506.718048,164.197433 
	C507.171478,151.387527 506.419891,138.629944 504.946808,125.895988 
	C504.554413,122.504295 503.427460,120.107109 499.909302,119.469200 
	C496.286682,118.812332 493.259857,119.965569 491.282135,123.120613 
	C489.166443,126.495728 486.770081,129.702332 485.317139,133.488205 
	C483.976440,136.981552 482.037476,139.685165 477.875946,140.761856 
	C474.395203,141.662445 471.434082,144.116074 468.529846,146.404465 
	C460.892090,152.422562 455.834961,160.879700 448.496185,167.208420 
	C440.305328,174.271896 432.490173,181.758972 426.642853,191.019165 
	C426.124664,191.839798 425.282410,192.461823 424.565918,193.150391 
	C413.151215,204.119843 399.612091,212.454742 388.896210,224.546524 
	C378.717010,236.032761 368.400574,247.546219 357.540833,258.514465 
	C347.722443,268.430908 339.936096,280.215668 332.538361,292.091614 
	C329.707153,296.636719 330.825714,298.278717 335.889709,299.986908 
	C342.020081,302.054749 348.362061,303.481293 354.151001,306.602783 
	C367.800751,313.962891 380.919922,322.084961 392.947510,331.932312 
	C396.778839,335.069122 400.680328,338.288696 405.009857,340.613342 
	C413.937225,345.406708 423.262146,349.441376 431.626373,355.285126 
	C438.018921,359.751312 445.799591,362.904846 450.788086,368.560486 
	C460.038422,379.047729 469.507385,389.274811 479.863525,399.673126 
M166.035095,602.475342 
	C161.702225,616.170288 154.707901,628.093811 144.565842,638.513977 
	C129.759323,653.726440 121.366989,672.477417 118.654694,693.422363 
	C116.897285,706.993408 112.918236,719.648682 106.855194,731.776855 
	C105.745514,733.996521 104.602280,736.192139 104.965111,738.947083 
	C105.609322,739.185974 106.210304,739.426331 106.822624,739.633118 
	C112.200386,741.449768 116.364388,737.691223 121.083931,736.497742 
	C124.253532,735.696228 127.547356,733.353210 130.656387,735.364563 
	C139.451416,741.054077 149.132080,741.397339 159.014511,740.754883 
	C173.126358,739.837463 187.222900,738.808838 201.378906,738.633606 
	C219.502991,738.409241 237.526260,740.749817 255.636185,740.505371 
	C261.935120,740.420471 268.240112,740.004761 274.518860,739.466553 
	C279.008911,739.081665 281.194702,736.565979 281.105927,731.790405 
	C280.988464,725.470398 280.544617,719.830139 276.675659,713.976685 
	C271.710571,706.464844 268.557861,697.655884 265.308533,689.144470 
	C263.187836,683.589600 259.332031,679.181702 256.320129,674.322266 
	C254.653564,671.633301 250.778412,669.353577 247.711716,667.116699 
	C243.140137,663.782166 240.684570,659.363403 240.884491,653.455505 
	C241.103958,646.970398 240.786758,640.468872 240.908249,633.978333 
	C241.005310,628.792480 238.964935,624.650269 235.489883,620.998535 
	C233.774628,619.195984 232.239960,617.222717 230.596985,615.350098 
	C216.996170,599.847717 203.037170,584.632568 193.679581,565.930481 
	C192.210953,562.995300 189.096863,562.327637 186.453003,564.647339 
	C181.038284,569.398254 176.305923,574.857605 173.520355,581.550842 
	C170.777557,588.141357 168.677490,594.999329 166.035095,602.475342 
M155.518036,151.026886 
	C160.674072,157.536636 166.444214,163.664078 170.804794,170.669006 
	C174.769867,177.038574 178.219955,183.597336 184.137100,188.454575 
	C187.864700,191.514496 191.426315,194.776382 195.148804,197.842804 
	C203.191589,204.468124 212.165436,210.044357 218.320648,218.777954 
	C219.592010,220.581894 221.617401,221.896378 223.646332,222.313019 
	C227.089630,223.020096 229.168610,225.290649 231.177383,227.694214 
	C233.860977,230.905182 236.780258,233.825256 240.182358,236.258102 
	C245.132141,239.797699 249.034424,244.153046 251.950851,249.592026 
	C256.817535,258.668030 263.399902,266.312836 272.461578,271.527832 
	C274.140869,272.494263 275.968506,273.928101 277.996246,272.559204 
	C279.898773,271.274841 279.788361,269.109039 279.600342,267.100739 
	C279.509155,266.126770 279.242554,265.124237 278.840332,264.231537 
	C275.742004,257.354919 274.367767,249.995346 272.558807,242.739822 
	C271.332275,237.820404 272.527649,233.892258 276.012817,230.503052 
	C278.405914,228.175812 279.723083,225.488266 279.705139,222.092575 
	C279.673553,216.116806 279.921692,210.158264 279.703491,204.160690 
	C279.339447,194.156952 280.602234,184.138489 277.592163,174.229019 
	C276.803070,171.631226 276.119781,168.639206 276.383820,165.493927 
	C276.985535,158.326080 279.456665,151.593948 280.465851,144.531525 
	C281.513062,137.203049 282.091461,129.727676 280.156189,122.771698 
	C277.899719,114.661125 274.509003,106.770668 270.437439,99.285583 
	C267.973511,94.755875 264.193512,92.006844 259.080841,91.240776 
	C249.511063,89.806870 239.843109,90.092255 230.216949,89.852669 
	C223.105759,89.675682 215.805084,90.312241 208.999451,88.458649 
	C200.055328,86.022621 191.419647,83.373970 181.927063,82.789642 
	C168.882065,81.986641 155.993134,82.818237 143.114975,83.879852 
	C130.711700,84.902321 118.412018,86.672432 105.966774,84.513222 
	C100.687500,83.597282 99.115456,85.652138 101.041702,90.674294 
	C101.566750,92.043198 102.363701,93.344185 103.222572,94.542534 
	C107.408310,100.382767 112.619484,105.235802 117.852615,110.130470 
	C131.243408,122.655197 142.523254,137.152679 155.518036,151.026886 
M451.792145,85.515717 
	C440.174774,88.686111 428.492065,87.171638 417.264801,84.389160 
	C407.924377,82.074318 398.763092,81.947754 389.777740,83.816200 
	C384.095032,84.997887 378.619843,85.485054 373.033661,84.966560 
	C362.256042,83.966194 351.485504,83.117203 340.654602,83.385101 
	C336.793121,83.480606 332.678131,83.814194 329.616791,85.998680 
	C322.733643,90.910278 315.414459,94.524216 307.181824,96.429977 
	C304.083008,97.147316 302.274872,99.580162 302.175201,102.604820 
	C301.835724,112.908691 301.086548,123.334297 305.451935,133.105026 
	C310.319977,144.000702 314.226776,155.050247 313.046906,167.281631 
	C312.922516,168.571335 313.359344,169.915604 313.538940,171.234131 
	C314.664825,179.500427 315.429688,187.818649 313.181244,195.973923 
	C308.209351,214.007492 308.585754,232.004486 313.000946,250.032883 
	C314.780334,257.298767 317.677765,258.588806 323.984283,254.567352 
	C334.520966,247.848526 344.208160,240.040268 353.600525,231.768005 
	C358.270111,227.655319 360.445953,221.022736 366.118256,218.492401 
	C375.568451,214.276749 382.547821,207.685684 388.904510,199.748260 
	C395.129852,191.974777 402.725586,185.304031 409.014801,177.575516 
	C430.921204,150.655731 450.385498,121.743370 475.085602,97.098991 
	C479.289093,92.905006 478.348602,89.901741 472.903778,87.173592 
	C466.363922,83.896751 459.529816,84.248161 451.792145,85.515717 
M98.765190,372.604980 
	C98.112289,371.204865 98.125359,369.778015 98.204781,368.235474 
	C98.338188,365.644470 98.765533,362.100189 95.566483,361.526398 
	C92.121826,360.908539 92.172272,364.883820 90.954063,367.046631 
	C90.637703,367.608276 90.530319,368.311493 90.426842,368.965485 
	C89.102478,377.335968 86.961853,385.679413 86.660553,394.088226 
	C86.048241,411.176544 86.166679,428.305450 86.481743,445.408478 
	C86.784660,461.852112 89.571732,478.171844 89.295212,494.669464 
	C89.161652,502.637604 89.042679,510.620758 89.369217,518.578552 
	C89.941368,532.522156 88.601166,546.476868 90.206177,560.427979 
	C91.786476,574.164185 91.353210,588.013245 91.214592,601.821045 
	C91.094963,613.738159 92.859016,625.655945 91.250336,637.567078 
	C89.894836,647.603577 88.274757,657.620483 88.335236,667.780457 
	C88.359909,671.925049 88.736771,676.123474 90.250969,680.029358 
	C91.914490,684.320496 93.797562,684.608582 97.145439,681.492188 
	C103.575554,675.506836 106.041801,667.470215 107.890030,659.387939 
	C110.814117,646.600891 116.896118,635.972290 126.752502,627.302124 
	C129.832718,624.592529 132.826263,621.359192 134.680191,617.758484 
	C140.856049,605.763794 145.900909,593.290588 148.021484,579.825073 
	C148.704758,575.486389 150.302292,571.518372 153.100159,568.057007 
	C155.207718,565.449646 156.464478,562.383423 157.868347,559.349915 
	C161.638336,551.203430 165.394989,543.010864 169.844589,535.229797 
	C174.494705,527.098145 173.344406,518.904053 171.157089,510.722137 
	C169.642761,505.057556 165.904129,500.849609 159.980087,498.952759 
	C156.253082,497.759399 154.789322,494.532471 153.596207,491.146820 
	C151.879074,486.274261 149.844360,481.569000 147.179337,477.097870 
	C144.459671,472.535126 141.693741,467.896912 139.801102,462.964447 
	C134.944046,450.306488 128.827026,438.011230 127.307747,424.282532 
	C126.761887,419.349884 121.979965,417.406097 120.129272,413.746399 
	C115.397331,404.389038 107.580887,396.971802 104.098328,386.813324 
	C102.552414,382.303955 101.774170,377.417328 98.765190,372.604980 
M291.810242,604.242737 
	C292.941895,597.187561 292.612854,589.981995 293.449219,582.969116 
	C295.391571,566.682251 294.992859,550.401367 294.815765,534.108032 
	C294.709259,524.308105 295.071960,514.315552 293.297150,504.767731 
	C290.956848,492.177856 290.215912,479.767456 291.516693,467.105316 
	C292.472198,457.804016 292.005280,448.477509 290.151306,439.347198 
	C289.102936,434.184265 289.131348,429.242554 289.562805,424.049255 
	C290.188019,416.524231 291.977966,408.919373 288.944611,401.380066 
	C285.032532,391.656555 281.452576,381.799561 277.702606,372.010437 
	C277.227356,370.769836 276.691833,369.443817 275.075684,369.329010 
	C273.206696,369.196289 272.535400,370.652283 271.849792,371.985229 
	C268.877686,377.763580 266.207550,383.702332 264.340332,389.910828 
	C261.084747,400.735626 258.401031,411.734161 255.065765,422.532684 
	C250.736740,436.548584 242.467117,448.315338 229.855469,455.441742 
	C222.577988,459.554016 220.245178,463.942261 220.664597,471.544983 
	C220.839981,474.724091 219.559113,477.981873 217.203644,480.683868 
	C214.228287,484.096954 212.426834,488.104309 211.716080,492.730438 
	C210.727631,499.163971 210.744400,505.706085 209.729462,512.071350 
	C208.300079,521.035828 210.466492,528.805847 214.939178,536.361816 
	C217.987869,541.512024 221.414413,546.619934 223.367966,552.203003 
	C229.116486,568.631897 238.474197,582.839233 249.201187,596.248352 
	C253.292801,601.363037 256.801971,606.753967 259.609741,612.629822 
	C264.486267,622.835083 269.212311,633.114380 275.141357,642.779053 
	C278.035248,647.496216 281.653259,648.882568 286.498138,647.007202 
	C290.425415,645.487061 292.949738,641.233337 291.269501,636.774658 
	C287.228119,626.050415 288.286957,615.593079 291.810242,604.242737 
M487.166870,672.722534 
	C475.782379,678.086731 466.746765,686.087158 459.480804,696.379456 
	C456.837128,700.124268 454.684692,704.601807 450.702606,707.094482 
	C445.020294,710.651428 440.141083,715.193848 434.814972,719.172302 
	C431.676636,721.516479 428.674713,724.279236 426.829712,727.986084 
	C425.139557,731.381897 425.640228,733.421875 429.813995,733.647583 
	C435.794525,733.970947 441.772858,734.572266 447.754150,734.599365 
	C464.882141,734.677002 482.033997,735.170532 499.116516,733.569885 
	C504.700256,733.046692 509.562195,737.087341 515.361389,735.522461 
	C515.463379,734.903687 515.618591,734.274475 515.663818,733.637512 
	C515.994934,728.969116 513.896973,724.421631 514.790771,719.760193 
	C515.851562,714.227661 516.501526,708.664368 516.491272,703.046448 
	C516.482056,697.973389 515.629944,693.209839 511.629089,689.408264 
	C506.688721,684.713867 506.359863,678.109375 509.884369,672.304749 
	C514.174866,665.238464 517.186462,657.690613 515.646301,649.147400 
	C514.429382,642.397339 510.387726,641.045227 504.431152,644.242981 
	C495.720337,648.919434 494.655487,657.587158 492.342743,665.601807 
	C491.505829,668.502075 490.521698,670.900452 487.166870,672.722534 
z"/>
</svg>